/* XPM */
static char *R3Jhc3NfR3JvdW5kX1RleHR1cmUrJTI4MSUyOS1vdmVybGF5[] = {
/* columns rows colors chars-per-pixel */
"50 50 176 2 ",
"   c #040302",
".  c #0C0404",
"X  c #0B0C09",
"o  c #180404",
"O  c #100F0E",
"+  c #1C0B0B",
"@  c #1A1412",
"#  c #250809",
"$  c #2C0C0C",
"%  c #300505",
"&  c #3A100F",
"*  c #2D1514",
"=  c #27310C",
"-  c #3F2523",
";  c #373939",
":  c #460A0A",
">  c #560F0F",
",  c #5C090A",
"<  c #461413",
"1  c #4D1415",
"2  c #571716",
"3  c #5C1515",
"4  c #5F1817",
"5  c #571918",
"6  c #660807",
"7  c #6A0D0D",
"8  c #790F0F",
"9  c #69100D",
"0  c #7B100F",
"q  c #631514",
"w  c #6A1413",
"e  c #641A16",
"r  c #6B1817",
"t  c #661818",
"y  c #6A1919",
"u  c #711312",
"i  c #7A1413",
"p  c #771815",
"a  c #741B1A",
"s  c #7C1C1B",
"d  c #413C16",
"f  c #7D211D",
"g  c #5B2425",
"h  c #5B2C2D",
"j  c #4E3131",
"k  c #443E3D",
"l  c #543838",
"z  c #642321",
"x  c #632B2B",
"c  c #7A2422",
"v  c #752D2C",
"b  c #683835",
"n  c #743332",
"m  c #7B3533",
"M  c #793E3D",
"N  c #3B4C10",
"B  c #5A4910",
"V  c #46561D",
"C  c #4C6506",
"Z  c #4E6A07",
"A  c #4D660A",
"S  c #4E6A0B",
"D  c #576F06",
"F  c #51660B",
"G  c #546C0D",
"H  c #596E0D",
"J  c #56710D",
"K  c #5A730E",
"L  c #5E790F",
"P  c #556D11",
"I  c #596E13",
"U  c #577213",
"Y  c #5B7414",
"T  c #577817",
"R  c #5E7915",
"E  c #5D7519",
"W  c #5E791A",
"Q  c #61750F",
"!  c #617615",
"~  c #637B15",
"^  c #6A7D16",
"/  c #61761A",
"(  c #637B1B",
")  c #697E1C",
"_  c #444C29",
"`  c #5A4725",
"'  c #5E5E20",
"]  c #6F4825",
"[  c #635F2A",
"{  c #73433F",
"}  c #6D5E35",
"|  c #5D693A",
" . c #68682D",
".. c #657D21",
"X. c #697F21",
"o. c #687E22",
"O. c #6F6F32",
"+. c #6B7739",
"@. c #747035",
"#. c #3F4040",
"$. c gray25",
"%. c #6C4543",
"&. c #614F4F",
"*. c #755552",
"=. c #687940",
"-. c #6F784E",
";. c #7C7D44",
":. c #6C7650",
">. c #737E54",
",. c #626262",
"<. c #716161",
"1. c #797A7A",
"2. c #821514",
"3. c #811815",
"4. c #831D1D",
"5. c #8A1D1D",
"6. c #81201F",
"7. c #89201F",
"8. c #852424",
"9. c #8B2120",
"0. c #852F2A",
"q. c #81312E",
"w. c #843835",
"e. c #823B3A",
"r. c #8C3E3D",
"t. c #82623A",
"y. c #854D4A",
"u. c #934E4C",
"i. c #835554",
"p. c #875D59",
"a. c #945B59",
"s. c #995C5C",
"d. c #86714C",
"f. c #91625E",
"g. c #837C52",
"h. c #887E59",
"j. c #907D51",
"k. c #8A6A68",
"l. c #936965",
"z. c #95716D",
"x. c #9A7676",
"c. c #A37777",
"v. c #AA7A78",
"b. c #658016",
"n. c #67811A",
"m. c #66811C",
"M. c #66811E",
"N. c #698119",
"B. c #6D851B",
"V. c #6A831D",
"C. c #6E831D",
"Z. c #72851F",
"A. c #668122",
"S. c #6A8122",
"D. c #6B8423",
"F. c #6E8923",
"G. c #6D8528",
"H. c #6C8829",
"J. c #718624",
"K. c #728A24",
"L. c #708728",
"P. c #738A2A",
"I. c #6F8049",
"U. c #778246",
"Y. c #798A4F",
"T. c #7B8A65",
"R. c #83864E",
"E. c #8E8C53",
"W. c #86815A",
"Q. c #828C65",
"!. c #999066",
"~. c #888681",
"^. c #8B8A89",
"/. c #948684",
"(. c #92928C",
"). c #AE908C",
/* pixels */
"N.~ Q ~ ~ ! Q I ! Y I F H Q ) X.! ! ! / Y ) Y ! / ) ( n.~ m.~ K m.m.b.T T T b.b.F.n.b.V.C.C.! ! ^ ^ ",
"C.^ ! ^ ^ ! ! ! ) H H H H / / ! ) / X./ / X./ / ^ I Y ( R ~ B.R ( A.m.T J T b.R b.m.b.B.C.C.^ J.^ Z.",
"Q C.K.C.^ ! ! H ! I ! ) F I ) ..I ! / / / / I E / h.d.!.R Y n.R J J U Y R m.m.n.b.B.~ N.^ ^ / ^ ~ ^ ",
"^ ~ C.^ ^ ! / J.X./ ..X./ Y X./ H I I I E / Q.E ] r.0.y.D.m.( m.m.Y U Y R R Y R ~ Q D D Q ! ! ^ D Q ",
"^ ! ! ^ / / ! / X.! I E ..) E Y / X./ E E _ k ` q 4.w $ W.A.E ~ ) V.) E Y ! ( F.L L J K D Q ! ) ^ B.",
"J.) ^ H H ) / ^ X...I Y ) Y Z A / X...E E ; o g g 8.e   *.~ S...G.F.X.~ R Y Y Y N.b.~ n.( ~ Y ! ~ N.",
"^ ! ) ) / ) ) J.) Y P Y ..W U U I ! ....E &.1 f.[ a.0 + 5 / ) P ! Y Y ..S.( ( / ~ R K n.C.C.Y I D Q ",
"! ! ) ! ^ / ! ) E Y W ....W ( W / / E / ..b i.-.E d.4.q u t.) Y I / ) ~ ( S.X./ ~ R K ! ( ) ( ^ ! ^ ",
"! ^ ^ ^ Y ( ( ( H Y Y / W W W W m.n.R ( E x ).A.Y ( r.5.3.q.^ P.J.) X.) / Y I / ! ! J J ! U H U ~ ~ ",
") ) ) / ! ~ ! I U U Y U J U W W ! Y U R Y b R.Y Y ..v.2.9.w } J./ I H Y / / E ! ~ F.N.~ ( V.! Y ! R ",
") ) ) ) ~ E ~ S.P G G G Z Y W Y R J H Y U %.Y G U S.E.6.5.w k.J ! H F P I / ../ Y ( ~ ( V.n.! L Y R ",
") Q Q ) ! U Y m.U Y U U Y W R R ..~ Y ( ! M U E Y ! / u.2.c +.Y ) / E I / ..X./ Y U J R n.! J D L K ",
"^ Y Y ~ R J J ( ~ S.( ( A.W K T ( ( Y W W.v >.~ D.A...c.8 f ~ ! ( ) / Y E U ( Y Y K K R b.( Q J Y Q ",
"~ ) D.V.( R ( ( W ~ Y W H.A.Y U J W U Y x.v ; -.T j | /., i j.F.G.E I P E F Y E J J L ~ b.b.~ ~ Z.V.",
"N.V.N.m.m.m.W W ( Y G Y m.F.( Y Y W Y ..s.w.#.Q.U O Q.1.: i l.V.G.W E E E P ( A.Y J K R ~ ~ N.V.~ b.",
"( ~ m.V.V.~ ( D.A.~ ( ~ Y ( V.Y E I Y X.c.c | -.W N ;.k , z O.R I E G.E E E E Y m.V.R K Y F.K.V.B.V.",
"Y T m.m.K Y Y P.X.X./ / / / ../ ..( G ..Y.e.] :.Q.T.d 3 n [ Y Y E E W A...A H F / / ) ! Y E ( ( F.m.",
"R m.A.( K L J ! o.I E I / F H F Y E U E E x.u l #.k 4 w b A Z ( E E W U I P I F / F H  .X.Y U ~ ~ A.",
"J W D.m.Y R U Y / / / E / ....E ..Y P P I z.7 1 . 5 a a e W.Y Y I P I P ! ....I / / ! ! I ..E U Y n.",
"U T ( D.m.( W Y F E / P / X...I ..U U E / e.2.t : s 4.4.i p.( J Y A E E ..E I I / / ) o.W ~ Y Y R m.",
"G G U ~ m.D.D.../ I P F W P P U I P E ..E a 9.s r 5.5.4.4.w.( ( E V U Y E F F I ! I ! o.I F G ~ R Y ",
"I E / Y G G W Y o...E P T T E E P A P P p.8 5.8.p 7.4.6.5.0.Y W E P I G F F I / / / / Y I / ( ( U K ",
"P W ..Y H D ( W U E P A T T T T E U E E s.i 4.5.s 7.4.4.7.6.Y G...I I I ' H / / ! H I I ! ( Y U I Y ",
") ~ ) V.( U A.W ..W E F m.T b.b.U E W ..m i s 8.4.7.r 4.7.i F P I F F E / I I I I I / I H I W ( ~ ) ",
"S.S.V.R Q K.B.R m.Y J Z J T b.J Z Y G F c 3 5 m p a y 4.7.2.g.P F F I F I I o./ P Y Y G ~ Y Y U / / ",
"( ! V.V.~ L R B.m.m.n.W b.b.b.L ( m.Y ! 6.# # %.x 3 q 4.7.2.z.) ..../ I / E / / X.) E Y ( A.m.( C.) ",
"N.! ~ ~ b.b.b.b.V.n.~ n.b.b.b.b.K ! ( ! a .   j h $ # 4.5.2.p.I / I I I / Y X.o.Y Y ( D.~ W ( R ) ) ",
"V.V.V.~ b.n.b.L ~ R R m.T V.m.n.R R ( ! n     @ *     r 9.2.a.( / ! ! ) / H Y X.G.! E S.( ( ( ! ( ) ",
"V.V.b.V.B.b.~ b.! ~ ~ ~ ~ K.B.~ m.! ( R i.%         . q 7.2.u.! X.) ) X.( Y ~ S.D.) Y Y U W Y ( ( ) ",
"F.~ J ~ F.B.V.J.N.V.m.! R V.N.R R Y R Y e.w < $ + $ & a 4.4.w.! ( C.~ ! ! ) X.( E D.D.X.~ W W m.) C.",
"R ( Y ! N.n.B.K.F.J.J.( ~ N.B.! ( Y Y S.a s s q 4 y e s 4.5.c ! ) ) ! K Y ) ) Y Y ( ( ~ W ~ W Y R ! ",
"K V.m.F.F.b.~ ~ ! ( F.N.( N.V.R R ( ! ( a s 4.s s 4.a 4.4.4.u h.X.V.! ! ! C.F.F.! R A.S...E ~ ~ ( ( ",
"n.R m.n.V.~ V.! R C.N.N.B.B.n.~ b.T J b.4 f 4.a p 4.s 4.4.s 9 ;.S.W W ( D.V.V.F.V.V.n.( ( Y Y ..W W ",
"n.m.b.( V.V.K.J.V.F.N.! ~ R L R Z n.b.J n u a a a s s s s s e ~ W P I Y V.m.n.b.V.F.n.T ( ( E W ..W ",
"F.F.W R Y ( m.! U J K ! b.b.b.L m.V.b.R i.6 p r r s s s a 9 p.T S P E P J R m.m.L Y K J T E E E W W ",
"m.H.F.A.Y R ( W H G Y ~ F.A.b.b.m.m.m.n.@.{ u r e a a p f *.U.n.A.A Z Z J U T W R R K U Y U T W W E ",
"T m.A.A.T U E ( ~ U ~ ( m.m.b.b.J b.T b.Y  .z 5 > q e : *.U.U J G.S U T T U T W m.( W W W W T E E E ",
"W T U W Y Y E E / U Y R b.m.T T J J T b.R J <.# %.B - o (.U U U T A.H.W m.A.A.U S U T T T W W U W W ",
"m.U U W ....G...E Y U W W T T Z R K U W n.T =.  +.U #.  Y.T Y Z T T T U A.A.A.P P T E U T W W J P P ",
"S U W W W P W ..W W T W W T m.T T R R m.m.n.(   W E ,.  W W ( W S U Y C P ..A.T E U U T Y W ( W W W ",
"E S T W ..W I E Y ....E W W E ..H.W T T m.H.=   A.W 1.X W ..E W G./ F ..E I E ..E W E I ....) E ..W ",
"E P T P E E W W ........P P T W ( ( A.J Y ( ,.N A.T ^.X W T T E G.P.../ ....E ....G...I E ..X...I P ",
"+.A.G.E F P Y I / E E E P P P T J R ( Y U S Y.A.T S -.@ T S T E F ! / F P E F E W ..P F F / Y E ....",
"W P E E ..E Y V E E P E ..E U W W Y Y Y ( U T G W P S _ ..W W P X./ ..X...../ ! ....I I F E ! / Y U ",
"H.U P Y E E ..E P ../ / E E P E Y ....P T P T S T T E +.G.E W ..E I F / Y ) G.G./ V.o.../ ) E E W W ",
"P A P E E P I I F I Y E A P Y E I ..X.U P P E E ..E S S W E E G.E ..I I J U ~ ( Y U E A.X.Y P P E T ",
"S./ Y W ..E E P E P I E A E ......Y E U E E P P T ..T P A A P X.W A.~ Y U W m.A.F.U J W W U E ..T T ",
"( / I G I I ..E E E E / I / E ..F I W E E ( T P T P T ..E P S A.A.Y W E Z m.D.A.( R Y U W ..X.U T T ",
"Y ! ..I P I I I I E I / E I E F I E / Y Y ! I E I F P I ..I E ( m.m.A.V.! ( n.m.b.S m.m.W W E U U E ",
"I I X.I I E I I I I P E E E ..E E I / / ( ! I ....E I F F I W X.R W ~ ( K R T b.b.J b.W Y Y U P W .."
};
