/* XPM */
static char *cb2ff96de8684b6bb700361903360646V5dxfCZW0T5UlEpx[] = {
/* columns rows colors chars-per-pixel */
"50 50 41 1 ",
"  c #4C6506",
". c #4E6A06",
"X c #4D660A",
"o c #4F690B",
"O c #546D06",
"+ c #52670B",
"@ c #546C0D",
"# c #596E0D",
"$ c #56720D",
"% c #5A730E",
"& c #5E790F",
"* c #556E11",
"= c #596E13",
"- c #577213",
"; c #5B7414",
": c #567817",
"> c #5E7915",
", c #5D7519",
"< c #5E791A",
"1 c #63750F",
"2 c #617614",
"3 c #627B15",
"4 c #6A7D16",
"5 c #61761A",
"6 c #637B1B",
"7 c #697E1C",
"8 c #657D21",
"9 c #697E21",
"0 c #658116",
"q c #698217",
"w c #66811C",
"e c #6A831D",
"r c #71831E",
"t c #668122",
"y c #6B8423",
"u c #6E8922",
"i c #6D8529",
"p c #6A8828",
"a c #718623",
"s c #728A25",
"d c #728B29",
/* pixels */
"q41242;222=##1795=25,955574w2w3&www:&:60uqqqrr4244",
"e4144;#27=#++57=757459555=;6>0e>0tt:$:0>000e7e4r7r",
"1esr522#2#55==99=55555=,556y>%0>$$-;><00qq3q475413",
"42ee414s95992=97+===55=,552-yt600;-<>>>6>1O&122411",
"712474=585*5t7,;785,,,,8i85+<t;6777;->we&&$%#%37qq",
"a97##795y6-,6;XX5885,*,8,*<=@69wiut6;;>;qw3w34;24q",
"417447797,*;86-*==85,*,=,*,5=58#2;,7y7653>%qee2#O1",
"217254595-<88<6<8,568,8*,8=9526;;26568963;%2675724",
"2442;466=;;,6<<<tw>6;;-t,85-2;6sa7995==,3>$$;;@%33",
"9a75;4;=*;;;@-<<>;->;66;=5e6225a4#==55,,6yq36e3>>>",
"77976;6t**+o.:<>>$$%%>;@,ydtw2%%2=+*=585-646q6;;;;",
"71173#;w-;---><>73;6;;->;;27e2%267==5898;%$>q2$O&&",
"4%%>>$-66t66w<$><6;>>;O6yy6;3>>276,,,*6-;$%>6q%$;1",
"4que6><w66;>pt;%->--,<-,;3;;3eeri,=*=*,<#$%3q033re",
"wewwew6>>;O;eu6;;,;6686<;..>w&$wi5,,,=<8;$$303qeqq",
"636et36et666;6w;<-,8*:,;6>$;0w3>=,i<<=,,ew>&>eseee",
":>0w%%;d9995757596+688+-;6>-$>>>,,888X===59=;666uw",
">tt6%%@69===5+#+;,-<,:Xo<p76:..<,,,:=*=+5+=99--<0w",
"*<t7>>;;585,599=,,=**,,,-,;<y<;;**=*,85=555=-7,-:0",
"-;7pw6;;+=,*588:8=:,,:,,6-+<;66-=*=,8,==9599,<;;>3",
"+@-6ttp65=*+<=**:*,<,*,=oX 7;w86,X===++===59=+O66;",
"-,6-@-6;88,*<:,,*X****6;*;*,<t:,,*=**+=8955==766$;",
"*,7;OO8<,,*X:<<:,=,,,,,**<6@#6;i8====+=5====552;=;",
"767e6-7<<<,o:0<0=,<t<,:,<%t;;# *=++,5=5===5=+=5666",
"y9e>>se>0>-.$::$ ;O.@3>37@@36;%#*+*+==55=,=@6;$;33",
"63eq3&0rt0<00>0&ww<>>$%e>3%>e>#695,=,595965-6tt677",
"73320q00wq3w0000$6w>;2q3eq3472;#5===5559;;wu<36>77",
"qee30q>&33>6>pew>;3>30q3&3er732652545=59i2;t66<>77",
"rqweeq30;4>33uqqq36%>2e34e76e2#29e796;6ea7-,;;>647",
"u3$1uequqyw3>ee;>;>;;3w36423635279323796;iu7><<77e",
">0>>equsuau44ee36->ye%$274aa2=55772%;4w;;68,666-,6",
"-wwyu3>3;6u46wq>>6<033%#%#=479757y2627ue23wtw;,366",
"0>0wy3621ewweqq00::0000w3O@66<66t<66yeeueeq66>-88<",
"ww6weessesq333>&.0$0:.&3;%>;>0w66+*;twwqeuw>6<,5<<",
"pu6>;37<%%%;000&ww000&:;>6ee;$$;o-<@O>tw%>$$:,,,8,",
"wuut;;66@O;4ep00wtww>&&%;%;wtw0twXXo$$>6<>$-;-,<,,",
":wtt;-,63;>6tt00&:00$.#>;%@.->$@po-::-::w<<,<<:<,,",
"0:-,;;,,,;;<0w::O$&>>$$>%>;-@-;-:tp<wt8:o::::<<-<<",
"<:-<88i8,--,>::.$::<0>><<-$><:-o<->-8p8*-:,-><<-**",
"o-<<<-<86,-<<<t>:>>wwwtw6;>6<<6<o-: ott<,:-:;<<<,8",
",X:,8,=,,88<,,:8u0<:wpt<8,::88,8i5=5,=,8,55*888=85",
",*::,,,,8888**:8<w<-;66<8**8<:*,9d9588,8888=5998=*",
"88i,**==5,,<*o*,#;8--o<t:X:8:X:,@55@*,+,88*+@55,88",
",:,,8,,X:5*,8<*,6<--6-:@:**<8<8=8598885,88==+;55--",
"i,*==,8,*885<,*,,88*:*,X,::88<,8,*@5;6iu<788585=<<",
"*X*,8+==**=,X*,,*88=**:,8<**<<<8,8=*$;66;;,y9-*=::",
"98,,8,,*=*=,+,858,==,,**:8,*XX*8,t6,;<twp%-<5:,8<:",
"8,**==8,,,,5-558**,,88:*,*,,,**8t;<;.<uww;;-,88:;:",
"=,8======,=8,==*=,5,,5=,=*+=,,-7wwwe;60w0otw<<,:*;",
"==8==,====*=,,8,,=,,5;=585****59>633;3:00$0:,,=*<t"
};
