/* XPM */
static char *e2f8c63fce3e4feeb0f6407ccac075ccyE1oHCwBdR5o4Sdm[] = {
/* columns rows colors chars-per-pixel */
"50 50 212 2 ",
"   c black",
".  c #00011B",
"X  c #000623",
"o  c #030925",
"O  c #050C2B",
"+  c #090E2A",
"@  c #0B122F",
"#  c #05102E",
"$  c #0D1532",
"%  c #0A1535",
"&  c #101733",
"*  c #121935",
"=  c #151E3C",
"-  c #17203F",
";  c #1A223D",
":  c #161F40",
">  c #172241",
",  c #1A2443",
"<  c #1D2946",
"1  c #1E2A4A",
"2  c #1A274A",
"3  c #1B2950",
"4  c #212D4C",
"5  c #212742",
"6  c #27314E",
"7  c #222E51",
"8  c #253254",
"9  c #293453",
"0  c #26345A",
"q  c #29375B",
"w  c #2C395C",
"e  c #2E3956",
"r  c #303B59",
"t  c #2D3C63",
"y  c #2A3761",
"u  c #303E66",
"i  c #313F69",
"p  c #3C425B",
"a  c #2F4169",
"s  c #33426C",
"d  c #38476A",
"f  c #36466A",
"g  c #364672",
"h  c #384772",
"j  c #364875",
"k  c #3B4A75",
"l  c #374B7C",
"z  c #3B4C7A",
"x  c #3F517E",
"c  c #42485E",
"v  c #454D66",
"b  c #404F79",
"n  c #404F76",
"m  c #455376",
"M  c #43527C",
"N  c #4A5A7C",
"B  c #4F5871",
"V  c #5A6679",
"C  c #606376",
"Z  c #3C5184",
"A  c #3E558C",
"S  c #3C5995",
"D  c #3C5C9D",
"F  c #375695",
"G  c #374E80",
"H  c #3B5DA4",
"J  c #3F61A8",
"K  c #455582",
"L  c #485783",
"P  c #4B5A85",
"I  c #41578C",
"U  c #445A8D",
"Y  c #4B5C89",
"T  c #475886",
"R  c #505F8A",
"E  c #505F86",
"W  c #435B93",
"Q  c #495F94",
"!  c #415790",
"~  c #4F608B",
"^  c #53628D",
"/  c #57678A",
"(  c #5E7187",
")  c #4C6294",
"_  c #456099",
"`  c #4C659A",
"'  c #566591",
"]  c #586792",
"[  c #5B6B95",
"{  c #546B9C",
"}  c #5C6D9A",
"|  c #556799",
" . c #65788B",
".. c #757A8B",
"X. c #757888",
"o. c #616F9B",
"O. c #63739D",
"+. c #6E7D9E",
"@. c #4364A4",
"#. c #4D67A0",
"$. c #4466AB",
"%. c #4C6BAB",
"&. c #546DA4",
"*. c #536FAC",
"=. c #5B71A3",
"-. c #5C74AC",
";. c #5471AD",
":. c #476BB0",
">. c #5473B3",
",. c #5A77B4",
"<. c #5D7CBC",
"1. c #5C7AB6",
"2. c #6575A2",
"3. c #6876A2",
"4. c #6778A5",
"5. c #6A7AA6",
"6. c #667BAE",
"7. c #6B7DAA",
"8. c #6077AB",
"9. c #647CB2",
"0. c #687EB1",
"q. c #617EBD",
"w. c #6177B0",
"e. c #617EC0",
"r. c #7D8393",
"t. c #6F83AD",
"y. c #7183AC",
"u. c #788DAE",
"i. c #6A81B4",
"p. c #6B84BD",
"a. c #6D89BD",
"s. c #6381BA",
"d. c #738BB1",
"f. c #7B92B8",
"g. c #7892AD",
"h. c #6583C3",
"j. c #6F8CC4",
"k. c #6986C2",
"l. c #718DC4",
"z. c #7593CC",
"x. c #7A99CD",
"c. c #7894C7",
"v. c #868B9E",
"b. c #8896AA",
"n. c #989FAC",
"m. c #8598B8",
"M. c #A4ABBB",
"N. c #A8B2BE",
"B. c #859DCE",
"V. c #879FC5",
"C. c #829ED1",
"Z. c #8CA1CB",
"A. c #97A7C4",
"S. c #8AA8D8",
"D. c #95ACD5",
"F. c #97ADD8",
"G. c #9EB4D9",
"H. c #97B1D6",
"J. c #AAB6C9",
"K. c #A8BDDD",
"L. c #99B9E9",
"P. c #AABDE0",
"I. c #B8C5D7",
"U. c #9FC1EF",
"Y. c #ABC2E3",
"T. c #A8C4EE",
"R. c #B6C8E7",
"E. c #BED3EE",
"W. c #A3CEF8",
"Q. c #AACEFB",
"!. c #A5C7F2",
"~. c #B3CCF3",
"^. c #A6D3FE",
"/. c #ABD5FE",
"(. c #ADD8FF",
"). c #BDD6F4",
"_. c #B1D7FE",
"`. c #BBD6F9",
"'. c #B3D9FF",
"]. c #BADCFE",
"[. c #B4D0F5",
"{. c #B4E3FF",
"}. c #BEE1FE",
"|. c #C1CDD9",
" X c #CBD7ED",
".X c #CDDAEE",
"XX c #C6D3E4",
"oX c #D1DCEF",
"OX c #CBDEF7",
"+X c #C3DCFA",
"@X c #C6DAF2",
"#X c #D3DDF1",
"$X c #C3E3FE",
"%X c #CBE4FE",
"&X c #C5E9FE",
"*X c #CBEBFF",
"=X c #D4E2F3",
"-X c #D9E3F2",
";X c #D2E7FE",
":X c #D4EAFF",
">X c #DBEDFE",
",X c #DDF3FF",
"<X c #D8F4FF",
"1X c #E1EEFD",
"2X c #E2E8F6",
"3X c #E4F2FF",
"4X c #EBF5FE",
"5X c #E3FAFF",
"6X c #EEF8FF",
"7X c #F2F5FB",
"8X c #F1FAFF",
"9X c #FEFEFE",
/* pixels */
"    V E.:X:X:X>X>X>X3X1X1X3X3X1X4X3X4X4X4X6X4X6X4X4X8X4X4X4X8X4X4X6X4X4X3X3X3X3X1X3X1X>X>X>X@X .    ",
"  b.5X:X:X>X>X>X>X>X3X,X5X3X4X3X4X4X4X4X6X6X6X6X8X8X7X8X8X8X8X8X7X4X4X4X4X4X4X3X3X3X3X>X1X>X>X6Xb.  ",
"V ,X*X:X:X>X>X>X>X1X3X>X1X4X3X4X4X4X4X4X4X7X8X4X8X4X8X8X6X8X7X4X4X4X4X4X4X3X3X3X3X3X3X,X>X>X>X;X5X .",
").:X:X:X:X>X>X>X>X,X3X3X3X3X3X4X4X4X4X4X4X4X8X8X8X8X8X4X6X6X6X7X4X4X4X4X4X4X4X3X3X3X1X,X>X>X>X>X>X%X",
"%X;X:X:X>X>X>X>X,X3X>X3X3X4X3X3X3X4X4X4X4X4X4X8X6X8X6X8X6X4X8X4X4X4X4X4X4X1X4X3X3X3X3X,X>X>X>X;X:X:X",
"%X;X;X:X>X>X>X>X>X1X3X3X3X3X3X4X4X4X4X3X4X4X4X7X4X6X6X4X6X4X4X6X4X4X4X4X4X4X3X3X3X3X3X1X3X>X>X>X:X*X",
"%X;X;X:X>X>X>X>X3X,X3X1X1X4X3X4X4X4X4X4X4X4X4X4X4X8X4X7X4X4X4X4X4X4X4X4X4X3X3X3X3X3X3X3X>X>X>X>X:X:X",
"%X%X;X:X>X>X>X>X>X>X3X3X3X>X3X3X1X4X4X4X4X4X4X4X4X4X4X3X%X1X6X4X4X4X1X;X2X4X4X3X,X1X,X>X,X>X>X>X:X;X",
"*X;X:X:X>X>X>X>X>X1X>X;X$X@X3X3X3X3X4X>X>X4X4X4X4X4X3X:XE.@X5X4X4X4X>X@X+X@X#X>X5X3X3X>X>X>X>X>X>X:X",
"%X;X:X:X;X>X>X>X1X;X%X!.H.3X5X3X3X4X>X%X1X4X4X4X4X4X>XY.m O.R.>X8X7X8Xu.y.D.~.).OX3X>X>X>X>X:X:X:X;X",
"%X;X;X:X>X>X>X>X%XQ.d.7 b.6X1X3X1X>X%XG.XX4X3X8X4X%Xm.k M k k O.A.P.#Xm 1 q m f.T.@X>X3X>X>X>X>X:X;X",
"%X%X;X:X:X:X>X$XS.d > 0 .X3X3X3X>X).m.y I.9X3X@XZ.~ h ' O.o.Y d i i i n K k q 3 M F.).1X>X>X>X:X;X;X",
"%X%X:X:X:X>X:XZ.1 4 q ] 6X,X%XY.d.M s z +.b.[ M k ^ O.O.3.O.O.[ ^ E L K L K b h 7 9 B.+X>X>X>X;X:X%X",
"%X%X%X:X%X>XL.< 1 s s d / N k t t b ' ] M z T [ 3.5.7.4.3.O.o.o.[ ' ^ E L K M b k 7 9 F.%X>X;X:X:X%X",
"$X%X;X%X`.%Xf , t s h s w t g M R ' [ } O.O.5.5.7.5.7.5.4.3.O.o.o.' ^ R P L M n k f 1 h [.>X:X%X%X:X",
"$X%X:XL.P.m.% w u s h z M L P ^ ^ ] [ o.O.O.3.5.7.7.7.7.5.3.3.O.o.[ ] ^ P L M b n h a - y.>X;X:X%X%X",
"$X%X:Xp.m.m - t i f h z M L Y ^ ] } O.O.2.3.7.7.7.7.y.7.7.7.5.3.O.o.[ ] R P K b n h s 4 w ].$X`.%X%X",
"}.%X}.Z V 9 8 t i f k b K T ' | } =.2.4.4.4.7.7.7.7.y.7.7.7.7.5.8.2.=.} ^ R L M n k s u - D.E.T.:X%X",
"$X%XQ.y * 4 0 t i h k b T Q { =.-.w.9.6.7.7.7.7.7.y.7.y.y.0.0.0.0.9.8.=.| ^ Y K b k s i - u.m.B.:X$X",
"].%XL.1 = 8 w t i g z T Y ` *.;.,.<.1.q.p.0.7.7.7.7.7.y.i.a.k.e.e.<.,.-.=.` Y K b k s i 1 ] v a.:X%X",
"}.%XS.= , 8 q t i g z U ` %.>.F. X#XR.C.h.p.0.0.0.7.7.p.l.k.z.P..XoXR.l.;.&.` T b k g i q 7 @ 6.&X$X",
"].*Xx.% < 8 q y s g Z W @.<.-X9X9X9X9X9XP.h.p.0.0.7.0.p.k.S.7X9X9X9X9X7XC.%.#.U b k i i y 7 $ { &X$X",
"].$Xj.% 2 8 0 w t k Z W :.oX9X7X9X9X9X9X9XF.q.i.0.7.0.k.j.7X9X9X9X9X9X9X9Xh.$.W K h i t y 0 * ) +X$X",
"].&Xa.$ < 7 8 q i j A D c.9X9X9X9X9X9X9X9X#Xe.q.9.9.9.e.P.9X9X9X9X9X9X9X9XP.$._ Z j i t y 8 * ) $X$X",
"].$Xc.@ , 4 8 0 t j A D H.9X9X9X9X9X9X9X9X4Xj.9.w.w.q.q. X9X9X9X9X9X9X9X9XoX$.W Z g a w w 8 * ) ].+X",
"].&Xx.$ , 1 7 8 y g A S K.9X9X9X9X9X9X9X9X7Xj.,.-.-.w.1. X9X9X9X9X9X9X9X9XoX$.W l s t q 8 7 & { $X}.",
"].$XS.% = 1 1 8 w s Z F c.9X9X9X9X9X9X9X9X-X,.-.-.-.-.>.K.9X9X9X9X9X9X9X9XR.D W l s w 0 8 1 @ i.$X}.",
"'.}.U.> * , 1 7 8 t l A @.#X9X9X9X9X9X9X9XB.*.;.{ { &.*.h.7X9X7X9X9X9X9X9Xs.S Z s a 0 8 7 < @ c.$X].",
"].].'.w @ , < 1 7 w s Z S 1.2X9X9X9X9X9XG.:.%.` ) ) ) &.%.c.7X9X9X9X9X9XB.D A l a w 8 7 4 - - L.%X].",
"'.].$XP o ; ; < 1 8 y g Z F *.H. XoXR.l.$.#.) Y Y T Y ) #.$.<.K..X.XY.q.D W l s w 8 7 1 < & a /.].'.",
"'.'.$Xc.o = = > < 7 0 t g Z A F D @.D _ _ U T K M M M T W Q @.H @.@.D S A G s t 8 8 1 < - # } }.].].",
"'.'.].Q.1 @ = = , < 1 0 y g l Z A A W A Z x z z k k z z x K I W S W A Z j s t 8 7 1 < , - * S.$X].'.",
"'.].'.%Xd.o = = = > < 4 8 q t s g g l g h g f s s s s s g z k l l z g s t y 8 7 1 < , = + h `.].'.'.",
"(.'.'.[.g.< @ * = : , , 4 7 8 w t t u t i t t w t t w a t u i i i t y q 8 8 1 1 , > = = @ S.$X].].].",
"(.'.'.&X/ . & * * = = - , 1 1 7 7 8 8 q q w 8 w e w e w q e q q 8 8 8 8 1 1 5 , = = = o P %X}.].'._.",
"(.'.'.{._.4 . * $ % = = = > , 1 1 4 4 4 7 6 9 9 9 6 8 9 9 9 8 4 7 4 1 < < , , = = = + 9 [.}.'.'.]._.",
"(._.'._.$XS.# + & & * * = = > , , < < < 1 1 1 4 4 4 4 4 4 4 1 < < < , , ; = = = = # * K.$X'.].'.'.(.",
"(._.'._.'.$Xf.o o * $ * * = = = = , , , < < < < 1 5 < 2 < 1 < < < , , = = = = = + % J.*X`.}.].'.'._.",
"/.(.(.].'.'.$XZ.* . $ * * * = = = = = = > , , , < < > < , < > , ; ; = = > , = o 5 I.*X].].].'.]._.(.",
"/.(._._.'.'.`.$XY.B X o = , , = > > > = = = ; ; = ; = : ; = = = - , < 1 1 % X B =X*X_.].].].].(._./.",
"/./.(.].'.'.].].}.*XA.p o O * < 4 6 4 4 1 1 < < 1 < 1 5 4 4 6 6 6 8 < * O 6 M.5X$X].].].].'.'.(.(.(.",
"^././._.'.'.(.].].'.&X:XJ.C ; O o % - 4 6 e e e r e r e e 9 6 < = O @ p n.2X<X].].].].].'.'.'.(././.",
"^././._._.'.'.'.].]._.(.*X,X-XN.X.c 5 & # # # # % $ @ # # # @ 5 v r.I.3X<X].'.].].].].'.].'._.'././.",
"^./.(.(._.(.'.'.(.'.].].'.(.].*X<X3X-X|.N.n.v.r.X.X.X.r.b.M.I.=X3X,X%X'.(.].'.'.'.'._.'.(._.(.(././.",
"W.^././.(._._.'.'.'.'.'.'.'.'.(.Q.'.'.$X*X<X<X<X,X,X,X<X<X*X$X'.(.'.'.'.'.'.'.'.'.'.'.'._._.(././.^.",
"/.^.^./.(.(._._.'.'.'.(.'.'._.'.'.'.'.'./.Q.(.^.(./.(.(././.(.].'.'.'.'._.].'.'.'._.'._._.(././.^.^.",
"!.^.^.^./.(.(./.(._.'._.(._.'._._.'._.'.'.'.'.].'._.'.'._.].'.'.'._.'.(._._._.(.(._.(._./././.^.^.W.",
"( {.W.^.^.^./.(.(./.Q.(.(./.(.(.(.(._._.(._._._._._._._._._.(.(._.(._.(./.(.(.(.(.(.(./././.^.W.{. .",
"  g.'.^.^.^.^.^.^.^././././././././././././././././.(./.(./././.(./././././././././././.^.^.^.{.d.  ",
"     .^.^.^.^.^.^.^.^.^.^.^.^.^./.^./.^././.^././.^./.^.^././././././.W.^.^./.^.^.^.W.^.^.^.W. .    "
};
