/* XPM */
static char *_c02145bd4594220c7fb19bc61c34ebbcxvthSsA97z3n47R[] = {
/* columns rows colors chars-per-pixel */
"50 50 70 1 ",
"  c #122536",
". c #15283A",
"X c #1A2D3E",
"o c #162A42",
"O c #1B2E44",
"+ c #1F3243",
"@ c #1F334B",
"# c #213445",
"$ c #22364D",
"% c #26394A",
"& c #2A3D4E",
"* c #263A51",
"= c #2B3E53",
"- c #2E4152",
"; c #2F435B",
": c #324556",
"> c #33465A",
", c #36495A",
"< c #394C5E",
"1 c #354961",
"2 c #3B4E61",
"3 c #3E5163",
"4 c #3C5068",
"5 c #415465",
"6 c #43556A",
"7 c #46596B",
"8 c #495D6E",
"9 c #465A71",
"0 c #4B5D72",
"q c #4E6173",
"w c #4F6379",
"e c #516576",
"r c #52657A",
"t c #56697B",
"y c #596C7E",
"u c #566A81",
"i c #5B6D82",
"p c #5E7183",
"a c #5D7288",
"s c #627586",
"d c #63768A",
"f c #66798B",
"g c #6A7D8E",
"h c #6B7E91",
"j c #6E8193",
"k c #718495",
"l c #738699",
"z c #76899A",
"x c #798C9D",
"c c #7B8EA1",
"v c #7E91A2",
"b c #8195A6",
"n c #8295A9",
"m c #8699AA",
"M c #899DAE",
"N c #8B9DB1",
"B c #8EA1B2",
"V c #92A5B6",
"C c #92A6B8",
"Z c #96A9BA",
"A c #99ACBD",
"S c #9AADC1",
"D c #9FB2C3",
"F c #A2B5C6",
"G c #A0B2C8",
"H c #A7BACB",
"J c #A9BCCD",
"K c #ABBED2",
"L c #AFC1D7",
"P c #B0C3D4",
/* pixels */
"8Bmgzzxbbbmg<kmbbbkbbbbM8eVbbbzkvvvVj:vMajjvmvvbM9",
"qmmzvbbbAVDb<bMbkkgbbbbV88bbkbbkvvvDv3vMzjjapgvCMw",
",sggggkjkkbtX8yykyykjgkk5:fggfyywpuju+wpkjpw3:<9a-",
",tfkkgkfbybk<ybbbkgbkggk8:ykkkkkjjjjj:pjjkzzgp89k9",
"7yjbxkzkyybk5ybbgkkbkkkby,gkbxkzjjwjj,tjffgjjjauk9",
",ygkzgjgbjyj,eyyggggkggg8:ygkggkjjjuj3wkvxkkkzgaz9",
":gjjxjkzbyyb,8bbbbkbkjgke,gkkkkkkjjjj:ezjjjkzzgaj5",
"&jjgxkjxbyyy<7ybjjjkkkkk8<gkzkkzjjjyj,9jkzkkjkgaj5",
":yjbbbjjgbjy8eybxxxkgskk88yxMkxgfzjjj<yjvvxkkkkgkw",
"<jzMbbbkbybj%8bbmbbbxkkke:sfmZbbxksjf-rkbbbxzzkjx5",
"ezjzkbbkkyyb5ybgxkkxxxkge8mkkxgxsghbj:pvkkkkjjggz8",
":e::,q7,,::555,<<<,<55<,5<558<5#<<=,4<8-255552<:5<",
":t3<<e8<58<<-7785<555555<<5<,,e587<<<&q<555555<<9:",
"yZZZmMMmVAHM8bJmMMMVVZFHesPVxkxZzmFJb7MPbmMMBZAASp",
":fjkyyyyyjbj#ebyfssggkxm<:gfkg8503ely:ygghggkvMMv1",
"5yybzbbbbkyy<8ybkggfffgk58ygxgxse55t8:yelkhdgjkza4",
"5kxkkgxxgkxx,8gkkxkkgssge5xgkkkgjsesj:ygkkkkkggkcr",
":skkggkkxgkg:8kxkkkjksske<gggkkxkgssk:yjkkkkkggglr",
":skxxkxkxggg,ekkkxkkxkgke<ggkkkxkjgsj-ykkkkkkxgsh0",
"5gkxxgkkkggg,egkkkjgkkgke<gkxkgkjjggg&ykkzkkgxksh6",
":skxxkkgggxk<8kxkxjgkggg8:gkvxkkkkggg&ykkxkkgkgsl0",
":sxmmxxxkgxg<8xbmmxxxkgk8<gxbbvvxxkgk:sgbbvvxxkklw",
"5gkxbxxxkggg<ykkvvxkkggke5kkxvxkkggfk<sgvxxbxggkl0",
"5ssssysgksys5ygsysyeyeyge5gssgsysssyk5sgsysgs88yd0",
"&% #&  X:X ##<#&&&##:-#X<X&X%:<XX%X %&5.%:>>>=$$**",
"ebxkgkxxkgbx5bAbbmMmMmVFesMxsgxxgkvbs5bAnnNnnNNCNu",
"8bMxkbVmVVHx:gMkkkgkxbbV8eMmxxmbVmAHz:gMkhhddllcN4",
"<ysgkgggkbxy:8ygkgssgkkx<<sgkkksyeske%yehkhllllld1",
"5ysxxgggsxss5esxgxkgsesk8<gkkkxgggjky5xxkkllllhhhr",
":skkkkkkkkxx:8kgkxxxksske5ggggxkzgsjs:eghkjhlllhc0",
"&gxkgkxgssgk:5bkkkggxksge5skxkkkkjskx2ykllljlllll6",
"<sggxxxgkxys88sxgkxkkgkx85gkkgxkgxgss:echjjlllhdd0",
"%xxklldclddl*0nlkkzkkfgg8:kgkxgjkzsss:exxkgkzkgjn0",
"5esMcclhhchh6rinbkhkxxkh88txmjmgfvzgj5yfbbbbkggjh6",
"<kxmnnclhlll;alcVBbckhhk8,gxmvxbjzgzf&ezxvvxkkkgl0",
"5bxklnclldhl6dllhhjgspgky<kjkvkxxjsjj<yzzzkgxbxglr",
"8,:0:6r>1>=614O6:%#%-:--5<<55<e&<5::7,7#:-%#&<&X1;",
"8y802ei00ri0=i62e8888888,7f8<5t85eee8&e888e888ee0;",
"eHZxnNlnNNLN1GLnnMZAAAFPeyHmkbbZBMZHb8mPbbMVBVZFGu",
":ssjdi0246hd$rrlkgfjxcvv<5sgkskesyfxy&yskssjkxxbc;",
"9dalllha06rd10hlzjhhjkkx61hhlllhsgsss:eykkkkggkvd4",
"9alllllddrdd40hhlkjkhgjzr4llhlhhggsgg<ykkkkkgfggl0",
"4ahlllcllddh4rllkllxjggkr2hhllllkksgg,ykxzkkkkgsc0",
"4dhllhlllddh1rhlkklxkggh0>hhllllxksgg&ekkkkzxxgsl6",
"4acllhldldhd10llljjjkhfhq2hkhlhhjgyjg-ekkkjkkzgfh6",
"1alnclclldlh10llclkllkjkq,hlccllkkgkg:ekxxkkkkkgl0",
"4dlnncnlchlh1rllnbxxlklz0:glnncckxgkg:ykbbbxkkkkl0",
"4alnncclcdhh6iccbbczhghze,hlncccgzggg5sxxbbbkjkkl0",
"wwwawawwuuwuwu9awulwww9awuwwuaawyeyei0r0irrh0r00ur",
";;***1@**@@**;@*@*4@**@@*;*@**1@##%X===%=$$2$=$O**"
};
