/* XPM */
static char *R3Jhc3NfR3JvdW5kX1RleHR1cmUrJTI4MSUyOS1vdmVybGF5KyUyODElMjk_[] = {
/* columns rows colors chars-per-pixel */
"50 50 188 2 ",
"   c #0E0201",
".  c #0F0D0A",
"X  c #110502",
"o  c #150A06",
"O  c #180C07",
"+  c #150D0A",
"@  c #1B0E0A",
"#  c #15120D",
"$  c #1C120D",
"%  c #1D180F",
"&  c #161312",
"*  c #1C1511",
"=  c #1D1913",
"-  c #1E1819",
";  c #22110C",
":  c #231512",
">  c #2B1614",
",  c #231A14",
"<  c #2B1A15",
"1  c #241D1A",
"2  c #2D1C1A",
"3  c #311B15",
"4  c #331D1A",
"5  c #391D1C",
"6  c #262017",
"7  c #2E2017",
"8  c #26231C",
"9  c #2C231B",
"0  c #2C281E",
"q  c #33231D",
"w  c #3B231E",
"e  c #30281D",
"r  c #321F20",
"t  c #2D2422",
"y  c #2E2A24",
"u  c #342521",
"i  c #3B2522",
"p  c #342A23",
"a  c #3A2A25",
"s  c #3A2729",
"d  c #362E2A",
"f  c #3B2D2A",
"g  c #373025",
"h  c #3E3226",
"j  c #343429",
"k  c #3C332B",
"l  c #373231",
"z  c #3E3730",
"x  c #3E3E33",
"c  c #3C3738",
"v  c #422523",
"b  c #482421",
"n  c #442B26",
"m  c #482926",
"M  c #402729",
"N  c #482529",
"B  c #442C29",
"V  c #4A2D2A",
"C  c #532D2C",
"Z  c #423927",
"A  c #42332C",
"S  c #4C322D",
"D  c #443B29",
"F  c #52342F",
"G  c #4B2D31",
"H  c #433532",
"J  c #4C3333",
"K  c #443A33",
"L  c #4A3B35",
"P  c #4B3E3A",
"I  c #533432",
"U  c #593231",
"Y  c #553A36",
"T  c #503C38",
"R  c #48541A",
"E  c #4C6506",
"W  c #4D660A",
"Q  c #4E6A0A",
"!  c #576F06",
"~  c #52660B",
"^  c #546C0D",
"/  c #5A6E0D",
"(  c #56710E",
")  c #5A730E",
"_  c #5E790F",
"`  c #536515",
"'  c #556D11",
"]  c #596E13",
"[  c #566919",
"{  c #5B6E1F",
"}  c #567213",
"|  c #5B7414",
" . c #577817",
".. c #5E7915",
"X. c #5D7519",
"o. c #5E791A",
"O. c #61750F",
"+. c #617615",
"@. c #637B15",
"#. c #6A7D16",
"$. c #61761A",
"%. c #637B1B",
"&. c #657E1A",
"*. c #62791D",
"=. c #667B1D",
"-. c #657D1D",
";. c #677C1E",
":. c #697E19",
">. c #6A7F1A",
",. c #697E1E",
"<. c #474D26",
"1. c #48402E",
"2. c #4E5524",
"3. c #484533",
"4. c #484B31",
"5. c #41403C",
"6. c #4D413A",
"7. c #4C483F",
"8. c #524A35",
"9. c #545737",
"0. c #546023",
"q. c #586327",
"w. c #5A662F",
"e. c #5E7325",
"r. c #607324",
"t. c #657D21",
"y. c #667E21",
"u. c #687E21",
"i. c #697F21",
"p. c #677B2D",
"a. c #626E34",
"s. c #667234",
"d. c #6D7C35",
"f. c #66733B",
"g. c #6B743B",
"h. c #6E7A3F",
"j. c #4E4E43",
"k. c #4F4F48",
"l. c #504640",
"z. c #524C44",
"x. c #594E44",
"c. c #554E4A",
"v. c #5E5447",
"b. c #54504E",
"n. c #5C544E",
"m. c #5B5752",
"M. c #655D57",
"N. c #6F7C42",
"B. c #717B41",
"V. c #6C6354",
"C. c #67645C",
"Z. c #766C5E",
"A. c #6C6969",
"S. c #82786B",
"D. c #877D70",
"F. c #678116",
"G. c #67811A",
"H. c #66811D",
"J. c #66811E",
"K. c #698119",
"L. c #6C821A",
"P. c #6D851B",
"I. c #6A831D",
"U. c #6A811F",
"Y. c #6E831D",
"T. c #6F841D",
"R. c #72851F",
"E. c #668122",
"W. c #6A8122",
"Q. c #6B8422",
"!. c #6E8524",
"~. c #6E8920",
"^. c #6E8823",
"/. c #6D8529",
"(. c #728521",
"). c #718626",
"_. c #728A24",
"`. c #708728",
"'. c #728A2A",
"]. c #768843",
"[. c #78884C",
"{. c #818E56",
"}. c #848C65",
"|. c #838378",
" X c #978D80",
".X c #94948A",
"XX c #9D9D93",
"oX c #A69D8F",
/* pixels */
"K.@.O.@.@.O.+.O.+.+.] / ~ +.=.,.+.] +.+.X.,.+.| %.%.&.*.@.G.@.) E.H.H. . ...H.F.I.H.F.P.Y.Y.@.+.#.#.",
"Y.#.+.@.#.+.] +.,./ ~ / / +.=.+.,.=.=.=.+.,.$.%.%.| ..*._ F.P.....H.H. .( _ F...F.F.F.I.Y.Y.>.R.#.R.",
"O.R._.Y.#.+.+.] +.] $.*./ ] i.i.] +.+.e.$.r.] +.+.X.-.I...( G.F.( ( } | ..H.H.G.F.F._ F.#.>.>.K.+.F.",
"#.@.#.Y.+.+.+.).,.$.,.i.X.+.$.t./ ] ] ] $.$.] { ,.+.X.) Q.H.H.o.H...} ...... ..._ _ ! _ / +.+.@.! O.",
">.O._ >.>.>.+.$.i.+.] $.i.-.X.X.=.=.X.| $.X.$.t./.t.$.^ o.W.X.@.-.I.=.| | ..H.W...O.( ) ! O.+.,.#.L.",
"R.,.>./ / ,.,.$.W.-.} | u.| E Q $.y.t.*.X.[ $.t.X.' *.] ^ *.i.t.!.(.W.-.X.| | X.G.I.@.K.#.@.+.+.@.L.",
"#.+.>.,.>.,.=.i.,.| } | t.*.} ^ ] X.*.*.$.' X.} X.[ } $.] $.-.^ +.| +.-.I.-.@.@.....) &.I.,.+./ ! O.",
"+.+.>.+.+.=.+.,.$.} o.t.-.X.&.o.$.$.$.*.-.p.r.` [ { [ d.$.+.,.| | $.*.$.@.E.t.*.@...( @.*.,.@.-.+.#.",
"+.,.#.+.| +.-.%.} } | @.o.o.o.o.E.-.X.}.<.M.k A p H z m.9.X.*.`.(.,.i.*.+.{ ] @.@.@.( ( +.| ^ ) @.@.",
":.,.,.#.$.@.+.] / } X.} ( } o.o...X.4.p p 7.K g e k k c.x z C.d.>./ ] +.$.+.X.X.@.Q.K.@.%.-.@.@.@...",
",.,.,.,.@.X.@.W.] ' ^ ^ Q | o.| w.c l d P 9 h 9 e g e z K k A P R / ~ / ] $.i.$.| &.@.%.K.%...) | ..",
":.O.O.>.@.} | -.} } } '  ...o.A.- t d 9 d 7 $ $ @ X O < p e 6.y 7.s.| } $.*./.$.| } ( ..G.@.( ^ ) ) ",
":.| ..@...^ } @.&.H.-.-.H.o.[.- 8 f 2 2 : ; ; o $ ; X   o e 9 1.z.z.X.X.X.' t.} | ) ) ..F.&._ ! ..O.",
"@.:.I.Q.&...o.H.*.@.| o.^.E.5.d 1 1 a 2 ; < a J f J a ;     e 0 3.n.9.` X.~ X.o.^ ( ) @.F.@.@.&.P.Y.",
">.H.H.H.H.H.o...o.} ^ | E./.- y H e ; 4 w a J L A L T B > X o 7 J 6.7.f.X.' o.E.| ( ( F.@.@.G.I.F.F.",
"&.@.G.I.W.@.&.Q.W.@.-.@.| C.l l e 2 > n B i A B a B S S S 2 # $ s 7.P q.X.X.X...H.H.@.( ..I._.W.R.I.",
"| ..G.H.) | | _.).i.*.$.*.5.= p f < i F V i B i f B B S S L : @ u a L n.-.W / / +.+.=.+.| +.-.-.P.I.",
"o.H.E.H.) ) ^ @.-.X.] ] | 8 d k L u S S v i a i M s B I S P t o e e D L ] ] / ` +.` ] =.t.| ' @.H.H.",
"( o.E.H.....) X.$.$.t.X.N.- 9 p u w V I v 5 f i f i B J N H u + , 0 e e d.=.*.] $.$.$.] | t.X.( } G.",
"} | -.E.H.&.X.X.~ { r.q.[.% d a a u B J s 2 i d i i B B s G t + 7 g A p S.$.] ] =.$.i.i.$.@.} X...F.",
"Q ^ } *.H.E.W.*.X.} ' ` .X+ y a a a i B u q p y 9 p s i r s r X $ 0 7 7  X/ ` ] +.] X.i.] ~ ^ ....+.",
"} X.@.| ^ ^ -. .t.*.| ' XX1 k 6.K w u a a d k p j k a a B f s - , 9 g e oX~ ] $.=.+.$.+.] $.-.-.} } ",
"^ X.t.X.^ ! -.o.} X.' W .X+ j A B 2 > < < 9 9 9 p d u u s s d * 6 g h 2  X` X.+.] / ] ] +.@.X.} } } ",
"-.&.%.W.&.) H.&.-.-. .Q |.& k 6.D a 4 w 4 < u q 2 u i i s s t + % e e 4 D.] ] ] ] ] $.] / ] X.@.%.-.",
"Q.Y.I...O._.P...H. .( Q C.= d k a i B B w 4 n w i V J V G f u $ 6 g h e Z.| *.*.] | ' ^ @.X.} } +.+.",
"@.@.I.K.@._ F.P.H.G...H.j 6 p a e i B C v 5 m v v V I m v f r + % e g g v.+.*.$.i.*.@.| @.E.H.@.,.(.",
"I.@.@.@.F.F.F...I.F.@.G.j.- y p q w V S v 5 v n v V Y V r s t + $ 0 a p V.| ,.i.| | t.!.o.@.-.X.>.,.",
"G.W.K.@.F.P.F.) @.@...@.0 8 g p e i n V v 3 b V i m Y V 5 r t @ % g H A Z.] $.i.'.+.| E.-.*.@.&.%.,.",
"I.I.G.K.P.F.F.F...&.@.@.z.- t u q M n S a 3 w V v n Y S 4 > 2 @ * g K h V.+.@.W.Q.-.} +.} ..X.*.@.I.",
"~.&.( ..~.I.H.P.G.W.%.@.x # 9 u w a n S n 7 n D w m F m v B s $ $ p A h 8.-.i.@.X.!./.-.o.@...-.,.Y.",
"..%.....I.I.~.^.Q._._.&.j * 9 a q i v F m w V F b C U m m B B : * p A L 8.-.I.X.| &.-...@.o...| +.@.",
") W.H.~.P.@.@.@.@.%.R.*.8 = 9 a i v m F m w m F b F F C v B a @ * a J 3.h I.Q.W.@...W.I.H.X.o.X.-.-.",
"H...H.G.I.@.%.@.| P.K.I.1 1 y k a i v B w q a n 5 n n n q M w O + 2 d a Z K.I.P.P.P.&.&.-.X.} t.-.o.",
"G.H.o.&.I.W._._.Y.Q.>.{.# p k L a q q p 0 0 0 9 7 w w a 0 2 e : * d H 6.1.I.G.I.P.^.F...@.o.X.X.*.o.",
"^.^.H...| &.-.@.) ) ) t.= * , 2 4 2 1 7 6 0 0 6 q u p e p e d @ # y k k x _ H.H. ...( (  .X. .$.*.*.",
"E.~.~.H.| X.@.%.^ ^ | &.. 8 d p 9 > > > ; : , , > 3 q 2 < , : # - p a L 1.(  .H.....(  .} } X.o. . .",
" .H.E.E.} } o.*.@.| o.].= - 8 0 p a B G i 4 u a v N U G r u p * & t p u p d. .o.H.o.o.o.o.o. .o.o...",
"o. .} o.| | X.X.X.} } f.. y d L a d B s r : > 2 q v G M 4 2 9 . & l d 6.K N.E.} Q  .o.|  .o.o.} o.e.",
"o. .} o.E.t./.t.X.} | e.k.b.m.M.2.q.g.B.h.f.f.g.g.g.g.g.f.f.a.R m.c.b.x.x.p.t.' ' }  .}  .o.o.} ' ' ",
"Q } o.o.o.} o.t.*.*.| o.o.o.t...} ....H.t.@.E.H.*.| $.=.X.X.=.o.Q  .| E ' t.E.X.X. .} } | o.-.o.X.t.",
" .W X.X.t.o.] X.X.t.t.X.o.e.o.H.E.H... .E./.E.o.o.....} o.E.o.o.W.=.^ *.$.| e.t.X.e.X.' -.t.-.X.i.$.",
"X.'  .'  .o.e.X.t.t.t.t.' Q ..o.-.H.-.( } o.o.o.E.} } o.e.} } ..W.'.W.$.$.*.X.t.t.Q.t.] @.W.Q.-.} ' ",
"/.t./. .' `  .[ X. .X.X.' ^ ' o.( ..&.| } Q o.E. .Q  .E. .Q  .o.^ X.$.] ] X.^ ] o.$.] ~ ` +.| X.t.$.",
"o.' X.t.o.X.X.W  .e.' X.t.o.^ o.o.| | } H.(  .^ o.' ( e.H.o.e.' t.$.i.i.$.t.$.X.t.t.X.[ ~ | $.$.X.} ",
"/.| ] } | X.-.X.' *.r.$.X. .` @.} i.-.] X.`  .Q  .o. .E.E.o.e.t.X.' ^ $.X.-.!.!.@.,.W.t.$.%.$.| X.o.",
"' W ' X.X.^ ] ] ^ ] X.| W ' X.X.] t.W.} ( '  . .e.o.' } e.X.o.E.X.t.] ] ( } @.*.X.} X.W.-.X.^ ] X. .",
"Q.$.X.$.-.X.X.' } [ ] X.~ X.W.*.=.| X.} X.X.' ' ..e. .Q W W ' t. .E.@.| } o.H.H.!.} ( o.o. .X.W. . .",
"-.@./ ~ ] { t.X.@.$.| $.} $.$.-.^ / X.| -.-. .' o.' o.e.X.' ' i.t.o.o.| Q H.E.H.H...| ( X.t.t. . . .",
"] $.r.] ] ] ] [ X.] ] e.X.| | ^ ] | $.X.| $.| X.] ` ^ X.$.} } =.H.E.G.K.@.&.&.H.F.Q H.H.o.o.X.' }  .",
"] ] i.] +.X.] ' ] ] ' X.@.X.t.} | | $.*.+.+.] *.$.e.] ^ ^ ] @.I...@.&.%.} +. .F.F.( H. .} |  .' %.i."
};
