/* XPM */
static char *_099674d4f8a49b58d974cc7761bf114X6KLYpLVMRUDTfT8[] = {
/* columns rows colors chars-per-pixel */
"50 50 228 2 ",
"   c #34110D",
".  c #3A2C07",
"X  c #38310B",
"o  c #3A2B10",
"O  c #353612",
"+  c #4D1116",
"@  c #57161B",
"#  c #5B191B",
"$  c #62161C",
"%  c #63191C",
"&  c #7A181C",
"*  c #452718",
"=  c #5E361C",
"-  c #4C1E23",
";  c #581C23",
":  c #671A21",
">  c #741C25",
",  c #4A2526",
"<  c #58282A",
"1  c #5A322C",
"2  c #572E30",
"3  c #4E3834",
"4  c #593837",
"5  c #612725",
"6  c #752724",
"7  c #7E2226",
"8  c #7B232A",
"9  c #62392B",
"0  c #642E36",
"q  c #7A2A32",
"w  c #693B37",
"e  c #753835",
"r  c #394517",
"t  c #3E4A21",
"y  c #47470F",
"u  c #464A1A",
"i  c #4C5719",
"p  c #5E5D1C",
"a  c #734F1B",
"s  c #67581C",
"d  c #4D6706",
"f  c #4D6609",
"g  c #4E6A0A",
"h  c #536A09",
"j  c #546C0D",
"k  c #596E0D",
"l  c #56710D",
"z  c #5A730E",
"x  c #5E790F",
"c  c #4F641A",
"v  c #556D11",
"b  c #596E12",
"n  c #546518",
"m  c #546919",
"M  c #5D6D1C",
"N  c #567213",
"B  c #5B7414",
"V  c #577817",
"C  c #5E7915",
"Z  c #5D7519",
"A  c #5E791A",
"S  c #61750F",
"D  c #65671C",
"F  c #72611D",
"G  c #617614",
"H  c #627B15",
"J  c #6A7D16",
"K  c #61761A",
"L  c #637B1B",
"P  c #697E1C",
"I  c #474B26",
"U  c #5A4B2A",
"Y  c #4C5623",
"T  c #4C552C",
"R  c #555825",
"E  c #4A453A",
"W  c #4B5331",
"Q  c #585837",
"!  c #5C5B3B",
"~  c #674622",
"^  c #7E4825",
"/  c #7E4F2B",
"(  c #6D5425",
")  c #785927",
"_  c #665835",
"`  c #7C5533",
"'  c #596727",
"]  c #5A6C23",
"[  c #5E7128",
"{  c #5B6836",
"}  c #6B6927",
"|  c #746527",
" . c #627324",
".. c #657D22",
"X. c #697E22",
"o. c #63732C",
"O. c #657B2A",
"+. c #6A7C28",
"@. c #747626",
"#. c #686839",
"$. c #776D39",
"%. c #657433",
"&. c #677637",
"*. c #6B7A34",
"=. c #6A793C",
"-. c #797736",
";. c #6A3944",
":. c #753643",
">. c #4D4E49",
",. c #554844",
"<. c #53534C",
"1. c #595B4B",
"2. c #5C5A52",
"3. c #6C4F4F",
"4. c #72574B",
"5. c #5E6745",
"6. c #5E6257",
"7. c #656A48",
"8. c #74684C",
"9. c #6A7646",
"0. c #797446",
"q. c #747A4C",
"w. c #7B7849",
"e. c #666459",
"r. c #746756",
"t. c #6D7853",
"y. c #727C53",
"u. c #757C5A",
"i. c #74795E",
"p. c #6A6864",
"a. c #6D7469",
"s. c #767767",
"d. c #736D73",
"f. c #777673",
"g. c #8B171D",
"h. c #9C121E",
"j. c #83221F",
"k. c #8A1B22",
"l. c #961924",
"z. c #A71B27",
"x. c #B91F28",
"c. c #852329",
"v. c #962527",
"b. c #9D232A",
"n. c #8C3B2A",
"m. c #862832",
"M. c #992A35",
"N. c #88313A",
"B. c #9B3835",
"V. c #A3232C",
"C. c #AB242C",
"Z. c #A62B28",
"A. c #AD2A2D",
"S. c #B52827",
"D. c #B6242D",
"F. c #BB242C",
"G. c #BA2C2D",
"H. c #A4322E",
"J. c #AD2531",
"K. c #A82B36",
"L. c #B52532",
"P. c #BC2532",
"I. c #B22B35",
"U. c #BB2A33",
"Y. c #B92A39",
"T. c #A63D37",
"R. c #AB3B36",
"E. c #B63336",
"W. c #C71E2D",
"Q. c #C81D31",
"!. c #C12827",
"~. c #C3242D",
"^. c #CB222C",
"/. c #D1202F",
"(. c #C32532",
"). c #C62637",
"_. c #C32933",
"`. c #884927",
"'. c #98462D",
"]. c #994A35",
"[. c #8B5033",
"{. c #835932",
"}. c #975C37",
"|. c #A64637",
" X c #A7553A",
".X c #88632D",
"XX c #836631",
"oX c #8A763D",
"OX c #9E3843",
"+X c #BA3945",
"@X c #994540",
"#X c #9B5646",
"$X c #A84949",
"%X c #B64746",
"&X c #A75747",
"*X c #816856",
"=X c #98685D",
"-X c #AD6B54",
";X c #BA6C56",
":X c #966A61",
">X c #837964",
",X c #C7434A",
"<X c #CC4652",
"1X c #C35655",
"2X c #658016",
"3X c #66811C",
"4X c #6A831D",
"5X c #72851F",
"6X c #668122",
"7X c #6B8422",
"8X c #6E8923",
"9X c #6C8628",
"0X c #718624",
"qX c #728A24",
"wX c #76872B",
"eX c #6E803B",
"rX c #748639",
"tX c #788546",
"yX c #76854A",
"uX c #7B844C",
"iX c #7A8457",
"pX c #7B8163",
"aX c #8F8A52",
"sX c #8A8956",
"dX c #86856C",
"fX c #8D8F77",
"gX c #C9857E",
"hX c #838481",
/* pixels */
"4XH S H G G G b G G b h k G P X.G b G J B X.G C K P 2X3X2X2X2Xl 3X6X3XV V C 2X3X4X4X2X4X5X5XG G J J ",
"4XJ G J J G S G P b h k k D P b P K P  .G P K K K B 2X4XV 2X4XC C 3X3XV l C L C 2X2X2X4XJ 4XJ 0XJ 5X",
"S 5XqX5XJ G G k G k K K k b X.X.b K G K K O.yXsXsXyXuXiXyXeX2X2Xl l B V C 2X3X2X2X2XH 2XJ P G J H J ",
"J H J J G G G wXX.K P X.Z B L P j b b b o.t.d.f.f.d.a.f.a.s.eX3XP B N C C V V H S x k S S G G J k S ",
"J S G J P J G K X.G b K X.P Z C K  .R i ! s.W W W T I t T ! r.y U *.P N B G 3X4XS 2Xz z k z G P 2X4X",
"0XP P k k P P K X...B B L B f g ] R T I _ =X_ -.Z v A M ( ` q ; *Xs.o.L C V C B 2X2XC P J H G G J 2X",
"J S P P J P K 0XL B v V ..L n y Y Y @.XX}.1XT.-XZ m N | OXI.Y.%XgXq.Y y ' K A A H x z P 4X4XB b k S ",
"G G P K G K G X.B B L ....M R I R K {.T.C.G.I.&X| L D [.I.(.~.U. XoXm * * p P P H C z H H P L L S J ",
"G J J G B H P L b N N +.tXQ R | ) / B.S.!.!.S.A.n.( `.K.S.!.!.S.H.#X) ^ > < p H H C l l C B k z S H ",
"@.5XP G G K G v k B M t.i.Q {.K.b.b.D._._.G.D.~.D.v.b.P.D.G._.G.S.Z.V.D.K.N.9 i L 7X4XH L P H C H C ",
"P J 7XP L C L 6Xl l ' p.Q s B.P.).(.G.E.1X X<X(.(.~.F.P.H.}. X,XF.F.W.W.Y.@XU O B L H H P P x B C C ",
"P B B J C k B P V [ t.p.{ } ].)./.^.A. XaX@.;X,XW.(.(.R..XH @.;X,X~./.W.E.XXo.u c l j C P C l j z z ",
"J z B H C l l L ..t.a.9.3XA F I.W.W.H.x V B @.;XF.^._.].H H x @.;Xx.W.~.|.v L c Y } &.G 2XP z l C S ",
"H 4X7X4XL C L ..&.e.E 0.9XX.`.U.W.^.Z.) oXX.$.`.F.^.).H.F 4XwXoX`.x.^.^.|.s Z  .Q ,.dXL 2X2XJ H 5X4X",
"3X3X3X3X3X3XL C %.3.- =X) `.V.!.^.~.S.I.&X{.$XZ.~.W.(.L.n.a `.$XJ.(.Q.Q.I.n.( ` :., >XS H H 2X4XJ 2X",
"2XH 3X7X4XA L 6X_ 0 : m.c.V.I.D.F.D.U.D.V.v.V.G._.F.P.Q.L.b.b.J.L.P.(.P.P.V.l.M.m.< 4. .H 4XqX4X4X4X",
"V C A 3Xz B S *.4 + > l.z.J.I.H.'.'.Y.~.~.G.I.U.E.[.H.)._.!.~.~.U.%X'.'.D._.D.z.c.% , 8.B Z P L 8X3X",
"C 6X7XL z z k ' 3 9 6 g.l.z.B.a z @.].Y.W.).Y.|..X8X@.'.(.(._._.&X#XA D n.A.C.h.j.= 2 7.X.B v A 2X3X",
"l A 6X3XB C B m _ *X~ k.l.k.`.m K V | +Xz.Q.+X-XV L B | E.Y.P.E.-Xv M v s c.l.l.6 _ r.' B L Z k B 2X",
"v V P 7X3XL B C ] 8.w : k.m.e } X.K ` M.h.z.M.#X} Z n / M.V.z.b.#X-.b n ~ 6 8 > 5 r.w.X.Z L B V C L ",
"j j N L 3X7X6XL Z [ _ < - @ ; w $.#.e & g.l.k.c.` ( ( c.k.k.g.g.m.:X#._ < @ + < 4.0.K L b h g L A C ",
"b Z K N l l L V +.L ] Q X X o , 4 4 < q 7 7 c.> q 3.e 6 > c.c.k.k.:.;.2 o . X U sXL K B b L L L B l ",
"k L P C j h L L N Z v f V V c O X o - ; # # $ $ @ + + $ % % % $ $ ; , o * l G K B k b b K A C B b B ",
"L K P 6XL z 3XA P L V j 2XV 2X2XN c o   , U 2 1 2 2 1 1 1 1 <   < ,.i Z L b b b k b K B k k Z L K L ",
"6X4X4Xz S qX4XC 3XV l g l V 2Xl f Z T Q #.sX0.w.*X0.0.0.0.w.0.* p.fXv j b b  .K b B b j K C l v G K ",
"K H 4X4XH S 2X5X7X2XL C C 2X2XV  .9.s.tXC z z 3XH H z H 4XH N 6Xi.pX&.b K K P K X.L K N L 6X6XL P 0X",
"4XH H H 2X2X2X2X3X2XL 2X2X2X2X2Xc E uXC B H 2XL 4X2XH H P H l l o.p.7.B K G K X.B G L 0XL H L C J 4X",
"4X4X4XH 2X2X2Xl H H C L 2X4X3X3X] ,.{ n H B [ rXS 2X4X7Xo.] +.yX{ 2.Y L K k K X.9XG C 6XA L L C K 4X",
"4X4XP 4X5X2X2X2XB J C H H qX4XH rXdXp.1.%.#.1.s.%.*.%.#.1.Q q.hX<.=.P P K C L X.0XL B G B C C L K P ",
"7XH l H 5X4X4X4XP 8X2XH S 4X4Xz x O.iXt.e.1.&.5.p.p.r.8.#.! 6.f.=.4XH C G P P L B 9X9XL C L Z P 4X4X",
"C P C C 2X2X4XqX4XqX9XH J 3X4XH L B V *.<.I z L q.q.uXtXB i E u.H 4XB z B P P G B K P Z L Z C C G H ",
"N 2X3X8X8X2X2X2XB P 8XP 2X4X4XC C A +.y.e.' z h x l G K P Z ! s.sX7XG H G P 7X8XH C 4X6X..C Z Z L P ",
"2XA 2X3X4XH P G B 4X2X4X7X4X2X2X2Xl 6Xa.a.2XP 3XH h l P 2XA o.p.pXC L K 8X4X4XqX4X7XP L L Z N ..L A ",
"3X3XA 2X4X8XqX0X4X0XJ H H C 2Xl g 2Xc >.iXg z H B z B z B P O.2.1.j v C 3X3X2X2X4X8X2XC L L Z A L A ",
"8X8X3XA B K P G z B z C 2X2X2Xx 3X3X] >.iXl V x B P 8X2XV l ] 2.Q N Z k l V 3X3Xz C l l V Z Z Z A A ",
"6X8X7X7XN C L A k h B H 8X3X2X2X3X8X] <.pXV C C C B V P 7X3X[ 2.5.f f g l l V 3XC C l V B N V V Z Z ",
"V 3X6X6XV B C L L b C P 3X6X2X2Xl C m <.iXd k C z B j h N B ] 2.5.v j V V N V C L L A A A Z V Z V Z ",
"A V N V C N Z C C B N C 2X3XV V l l c >.u.j N C l B V l j N ] 2.5.6X9XA 6X6X6XN g V V V V L A N ..A ",
"A V N A ..+.7X6XZ b N A C V V g V N ' 6.u.V V C L l N C C V ] e.5.V V N 6X9X[ N N V Z N V A A l v v ",
"g N A A Z b [ 3XL Z V A A V 3XV V A 6Xy.&.o.6X3XL C V L O.=.{ 9.yXj V d g 6X6XV Z N v B V L L A Z L ",
"N j V Z ..Z Z Z Z +.L A A [ A 3X6X3XV V O.9.yXiXtXtX=.=.q.a.{ L 7XL v L K Z K ..Z [ Z b P X.P C ..K ",
"[ v N v Z Z Z Z [ ..+...j g V 3XA P 6Xl V *.hXp.<.1.<.<.1.' N V 6XwXX.K K K Z +.X.6X .b Z 6X6XL B m ",
"6X6X9XZ j c Z m A Z V A v g g A l C K V B [ 9.r O r r r r g V Z j C K v v Z f b L K b h v G Z Z ..L ",
"A N A ..A A Z f V A b Z ..L v A L G B N L j V v V g l [ 3XA 6Xg ..K P +.K X.K K ....B b j B K K B N ",
"9XB k N Z M L Z v L  .K Z Z v K B X.P v Z v Z g V V V 6X6XA [ 6XZ b j K C L 9X9XZ P X.X.K  .K B A A ",
"v f v K K j N b v v Z b f v Z B b L 6XN v v V V [ 3Xg v [ Z A 6XZ ..b b j N L L C B C 6XK B k b V Z ",
"7XK B K ..B Z v b m b Z f K X.K K K C N Z Z N v V 3X[ j f f g 6XZ X.A V N 3XL 3X9XN l A A N Z ..V V ",
"K K v j b B ..Z K K Z K B K L L j b Z Z A ..N v Z l V [ Z v v +.P V L B g A 7X7X2XB B N A ..6XV V V ",
"G Z  .b b b b b b Z b K A N Z j b G L B C K b Z b v n b K B N P 3X3X3X4XC K 2X3X3Xg 4X3XA A Z N N Z ",
"b b X.b G Z b m b b m Z K K L N Z N G K K G b K  .K b j j v L 4XC L H H B C C 3XV l 2XA V Z N j A P "
};
